<svg width="443" height="115" viewBox="0 0 443 115" fill="none" xmlns="http://www.w3.org/2000/svg">
<g clip-path="url(#clip0_17_214)">
<path d="M31.872 28.608C34.688 28.608 37.088 28.672 39.072 28.8C41.12 28.928 42.976 29.152 44.64 29.472C46.368 29.728 48.128 30.08 49.92 30.528L49.056 36.96C47.136 36.768 45.344 36.608 43.68 36.48C42.08 36.352 40.352 36.256 38.496 36.192C36.64 36.128 34.432 36.096 31.872 36.096C27.584 36.096 24.192 36.928 21.696 38.592C19.2 40.256 17.408 43.04 16.32 46.944C15.296 50.848 14.784 56.16 14.784 62.88C14.784 69.6 15.296 74.912 16.32 78.816C17.408 82.72 19.2 85.504 21.696 87.168C24.192 88.832 27.584 89.664 31.872 89.664C35.968 89.664 39.392 89.6 42.144 89.472C44.96 89.28 47.712 88.992 50.4 88.608L51.264 94.944C48.512 95.712 45.664 96.256 42.72 96.576C39.84 96.96 36.224 97.152 31.872 97.152C25.536 97.152 20.448 96.064 16.608 93.888C12.832 91.648 10.08 88.032 8.352 83.04C6.688 78.048 5.856 71.328 5.856 62.88C5.856 54.432 6.688 47.712 8.352 42.72C10.08 37.728 12.832 34.144 16.608 31.968C20.448 29.728 25.536 28.608 31.872 28.608ZM89.022 29.76C89.79 29.76 90.462 29.984 91.038 30.432C91.614 30.816 91.998 31.36 92.19 32.064L113.502 96H104.766L87.582 41.664C87.326 40.768 87.038 39.872 86.718 38.976C86.462 38.016 86.206 37.12 85.95 36.288H83.262C83.006 37.12 82.75 38.016 82.494 38.976C82.238 39.872 81.95 40.768 81.63 41.664L64.446 96H55.71L77.022 32.064C77.214 31.36 77.598 30.816 78.174 30.432C78.75 29.984 79.422 29.76 80.19 29.76H89.022ZM101.31 67.968V75.264H67.71V67.968H101.31ZM94.302 8.256L99.006 14.592L80.574 26.112L77.79 22.368L94.302 8.256ZM131.269 29.76V96H122.821V29.76H131.269ZM156.106 29.76V82.56C156.106 84.736 156.618 86.336 157.642 87.36C158.73 88.384 160.362 88.896 162.538 88.896H186.442L186.826 95.424C182.666 95.744 178.41 95.936 174.058 96C169.77 96.064 165.482 96.096 161.194 96.096C156.33 96.096 152.874 94.912 150.826 92.544C148.778 90.176 147.754 87.2 147.754 83.616V29.76H156.106Z" fill="url(#paint0_linear_17_214)"/>
<path d="M215.407 48.096C222.447 48.096 227.535 49.376 230.671 51.936C233.871 54.496 235.471 58.304 235.471 63.36C235.535 67.52 234.671 70.784 232.879 73.152C231.087 75.456 228.239 76.608 224.335 76.608H197.071V70.272H222.223C224.335 70.272 225.711 69.568 226.351 68.16C226.991 66.688 227.311 65.088 227.311 63.36C227.247 60.352 226.351 58.208 224.623 56.928C222.895 55.648 219.951 55.008 215.791 55.008C212.399 55.008 209.711 55.52 207.727 56.544C205.807 57.504 204.431 59.232 203.599 61.728C202.831 64.16 202.447 67.584 202.447 72C202.447 76.992 202.927 80.8 203.887 83.424C204.911 86.048 206.511 87.84 208.687 88.8C210.863 89.76 213.743 90.24 217.327 90.24C219.823 90.24 222.543 90.144 225.487 89.952C228.495 89.696 231.183 89.408 233.551 89.088L234.415 94.56C232.943 95.136 231.119 95.616 228.943 96C226.831 96.384 224.623 96.672 222.319 96.864C220.079 97.056 218.063 97.152 216.271 97.152C210.895 97.152 206.575 96.352 203.311 94.752C200.047 93.088 197.647 90.464 196.111 86.88C194.639 83.232 193.903 78.432 193.903 72.48C193.903 66.336 194.639 61.504 196.111 57.984C197.647 54.4 199.983 51.872 203.119 50.4C206.319 48.864 210.415 48.096 215.407 48.096ZM276.185 48.096C284.633 48.096 288.857 52.384 288.857 60.96V96H280.697V63.264C280.697 60.128 280.185 57.984 279.161 56.832C278.137 55.616 276.409 55.008 273.977 55.008C271.097 55.008 268.217 55.712 265.337 57.12C262.457 58.528 259.033 60.448 255.065 62.88L254.681 57.024C258.329 54.208 261.945 52.032 265.529 50.496C269.113 48.896 272.665 48.096 276.185 48.096ZM254.681 49.248L255.353 58.176L255.929 59.616V96H247.769V49.248H254.681ZM319.103 48.096C322.175 48.096 325.215 48.512 328.223 49.344C331.231 50.112 334.111 51.328 336.863 52.992L336.383 58.08C333.375 57.184 330.719 56.48 328.415 55.968C326.111 55.456 323.647 55.2 321.023 55.2C318.335 55.2 316.159 55.68 314.495 56.64C312.895 57.536 311.711 59.232 310.943 61.728C310.175 64.224 309.791 67.776 309.791 72.384C309.791 76.992 310.143 80.576 310.847 83.136C311.615 85.696 312.799 87.488 314.399 88.512C315.999 89.536 318.047 90.048 320.543 90.048C322.399 90.048 324.063 89.824 325.535 89.376C327.071 88.864 328.671 88.064 330.335 86.976C332.063 85.888 334.079 84.512 336.383 82.848L337.151 88.608C334.591 90.976 331.679 92.992 328.415 94.656C325.151 96.32 321.631 97.152 317.855 97.152C311.967 97.152 307.743 95.072 305.183 90.912C302.687 86.752 301.439 80.608 301.439 72.48C301.439 66.4 302.079 61.6 303.359 58.08C304.639 54.496 306.591 51.936 309.215 50.4C311.839 48.864 315.135 48.096 319.103 48.096ZM343.487 28.8V96H337.151L336.191 87.84L335.327 87.168V55.104L335.903 53.664C335.647 51.872 335.487 50.144 335.423 48.48C335.359 46.816 335.327 45.056 335.327 43.2V28.8H343.487ZM380.662 48.096C384.118 48.096 387.03 48.576 389.398 49.536C391.83 50.432 393.654 51.968 394.87 54.144C396.086 56.32 396.694 59.296 396.694 63.072V96H390.262L389.014 85.824L388.438 84.768V63.072C388.438 60.192 387.766 58.144 386.422 56.928C385.142 55.648 382.646 55.008 378.934 55.008C376.502 55.008 373.43 55.136 369.718 55.392C366.07 55.648 362.454 55.936 358.87 56.256L358.102 50.208C360.278 49.824 362.646 49.472 365.206 49.152C367.83 48.832 370.486 48.576 373.174 48.384C375.862 48.192 378.358 48.096 380.662 48.096ZM392.854 67.2L392.758 73.344L370.39 73.44C368.15 73.504 366.582 74.112 365.686 75.264C364.79 76.352 364.342 77.888 364.342 79.872V82.848C364.342 85.28 364.918 87.072 366.07 88.224C367.222 89.312 369.078 89.856 371.638 89.856C373.43 89.856 375.446 89.536 377.686 88.896C379.99 88.192 382.294 87.136 384.598 85.728C386.902 84.32 389.014 82.528 390.934 80.352V86.4C390.23 87.296 389.206 88.352 387.862 89.568C386.582 90.72 385.014 91.872 383.158 93.024C381.366 94.112 379.35 95.04 377.11 95.808C374.934 96.512 372.566 96.864 370.006 96.864C367.254 96.864 364.822 96.384 362.71 95.424C360.598 94.4 358.934 92.928 357.718 91.008C356.566 89.024 355.99 86.624 355.99 83.808V78.72C355.99 75.072 357.11 72.256 359.35 70.272C361.654 68.224 364.854 67.2 368.95 67.2H392.854ZM417.605 49.248L418.661 58.176L419.429 59.616V96H411.269V49.248H417.605ZM440.549 48.096L439.589 55.776H436.901C434.149 55.776 431.397 56.352 428.645 57.504C425.893 58.592 422.533 60.16 418.565 62.208L417.893 57.12C421.349 54.304 424.805 52.096 428.261 50.496C431.781 48.896 435.173 48.096 438.437 48.096H440.549Z" fill="white"/>
</g>
<defs>
<linearGradient id="paint0_linear_17_214" x1="-7.7365e-09" y1="57.5" x2="208" y2="58" gradientUnits="userSpaceOnUse">
<stop stop-color="#4795E4"/>
<stop offset="1" stop-color="#CA6672"/>
</linearGradient>
<clipPath id="clip0_17_214">
<rect width="443" height="115" fill="white"/>
</clipPath>
</defs>
</svg>
