<svg width="346" height="346" viewBox="0 0 346 346" fill="none" xmlns="http://www.w3.org/2000/svg">
<rect x="136.966" y="75.3138" width="99" height="99" rx="14" transform="rotate(-23 136.966 75.3138)" fill="url(#paint0_linear_11_10)"/>
<path d="M145.062 101.209C145.637 102.565 147.202 103.198 148.558 102.622C149.914 102.047 150.546 100.481 149.971 99.1255C149.395 97.7698 147.83 97.1373 146.474 97.7128C145.119 98.2883 144.486 99.8537 145.062 101.209ZM251.625 98.887C252.201 100.243 253.766 100.875 255.122 100.3C256.478 99.7243 257.11 98.1588 256.535 96.8031C255.959 95.4474 254.394 94.8149 253.038 95.3904C251.682 95.9658 251.05 97.5313 251.625 98.887ZM147.516 100.167L147.768 100.6C202.908 68.5321 243.063 87.6231 253.728 98.2001L254.08 97.845L254.432 97.49C243.43 86.5788 202.777 67.4519 147.265 99.7353L147.516 100.167Z" fill="white"/>
<path d="M220.685 49.8327C220.589 49.7374 220.597 49.6364 220.709 49.5296C220.942 49.3078 221.133 49.0292 221.284 48.6938C221.434 48.3583 221.543 48.0702 221.61 47.8293C221.66 47.6556 221.733 47.5482 221.83 47.507L222.289 47.3124C222.454 47.2422 222.571 47.288 222.64 47.4498L225.73 54.7311C225.799 54.8929 225.753 55.0081 225.591 55.0768L225.127 55.2737C224.965 55.3424 224.85 55.2958 224.781 55.134L222.272 49.2227C222.226 49.1148 222.184 49.0054 222.145 48.8945L222.135 48.8991C222.083 49.0866 221.98 49.2999 221.827 49.5389C221.674 49.7779 221.522 49.9697 221.371 50.1143C221.239 50.2426 221.122 50.2581 221.022 50.1608L220.685 49.8327Z" fill="white"/>
<rect x="270.686" y="136.966" width="99" height="99" rx="14" transform="rotate(67 270.686 136.966)" fill="url(#paint1_linear_11_10)"/>
<path d="M244.79 145.062C243.435 145.637 242.802 147.202 243.378 148.558C243.953 149.914 245.519 150.546 246.874 149.971C248.23 149.395 248.863 147.83 248.287 146.474C247.712 145.119 246.146 144.486 244.79 145.062ZM247.113 251.625C245.757 252.201 245.125 253.766 245.7 255.122C246.276 256.478 247.841 257.11 249.197 256.535C250.553 255.959 251.185 254.394 250.61 253.038C250.034 251.682 248.469 251.05 247.113 251.625ZM245.832 147.516L245.4 147.768C277.468 202.908 258.377 243.063 247.8 253.728L248.155 254.08L248.51 254.432C259.421 243.43 278.548 202.777 246.265 147.265L245.832 147.516Z" fill="white"/>
<path d="M289.904 223.191C289.82 222.993 289.859 222.86 290.021 222.791L290.28 222.681C290.42 222.622 290.575 222.626 290.744 222.694L293.772 223.904C294.667 224.263 295.326 224.467 295.75 224.516C296.179 224.567 296.618 224.497 297.068 224.306C297.446 224.146 297.718 223.899 297.886 223.565C298.055 223.234 298.045 222.844 297.854 222.394C297.683 221.991 297.439 221.701 297.121 221.521C296.803 221.342 296.378 221.296 295.846 221.382C295.619 221.418 295.495 221.346 295.473 221.164L295.419 220.691C295.404 220.566 295.545 220.474 295.843 220.415C296.358 220.32 296.882 220.394 297.415 220.639C297.952 220.886 298.362 221.342 298.645 222.008C299.003 222.853 299.053 223.559 298.794 224.128C298.536 224.7 298.099 225.116 297.484 225.377C296.884 225.632 296.297 225.69 295.725 225.551C295.154 225.416 294.478 225.183 293.697 224.853L291.223 223.808L291.202 223.818C291.25 223.912 291.315 224.054 291.396 224.244L292.643 227.184C292.727 227.382 292.688 227.515 292.526 227.584L292.127 227.753C291.966 227.822 291.843 227.757 291.759 227.559L289.904 223.191Z" fill="white"/>
<rect x="209.033" y="270.686" width="99" height="99" rx="14" transform="rotate(157 209.033 270.686)" fill="url(#paint2_linear_11_10)"/>
<path d="M200.938 244.791C200.363 243.435 198.797 242.802 197.442 243.378C196.086 243.953 195.454 245.519 196.029 246.874C196.604 248.23 198.17 248.863 199.526 248.287C200.881 247.712 201.514 246.146 200.938 244.791ZM94.3745 247.113C93.7991 245.757 92.2336 245.125 90.8779 245.7C89.5222 246.276 88.8897 247.841 89.4652 249.197C90.0406 250.553 91.6061 251.185 92.9618 250.61C94.3175 250.034 94.95 248.469 94.3745 247.113ZM198.484 245.832L198.232 245.4C143.092 277.468 102.937 258.377 92.2719 247.8L91.9198 248.155L91.5678 248.51C102.57 259.421 143.223 278.548 198.735 246.265L198.484 245.832Z" fill="white"/>
<path d="M123.24 290.664C123.454 290.768 123.54 290.891 123.498 291.032L123.362 291.49C123.302 291.69 123.143 291.719 122.884 291.579C122.597 291.424 122.286 291.33 121.948 291.295C121.609 291.265 121.288 291.314 120.986 291.442C120.393 291.694 120.035 292.02 119.912 292.42C119.789 292.82 119.832 293.267 120.041 293.759C120.262 294.281 120.588 294.588 121.018 294.681C121.448 294.775 121.868 294.734 122.278 294.56L122.752 294.359C122.914 294.29 123.02 294.315 123.071 294.434L123.24 294.833C123.293 294.959 123.239 295.056 123.077 295.125L122.694 295.287C122.299 295.455 122.016 295.728 121.845 296.106C121.671 296.486 121.679 296.898 121.868 297.344C121.999 297.653 122.22 297.859 122.531 297.96C122.841 298.062 123.201 298.026 123.611 297.852C123.996 297.688 124.273 297.467 124.443 297.187C124.613 296.907 124.72 296.681 124.766 296.509C124.826 296.279 124.944 296.198 125.12 296.263L125.569 296.435C125.7 296.485 125.722 296.652 125.635 296.935C125.541 297.234 125.357 297.546 125.083 297.87C124.805 298.196 124.424 298.462 123.938 298.668C123.194 298.984 122.55 299.045 122.005 298.852C121.46 298.659 121.067 298.276 120.824 297.704C120.632 297.251 120.611 296.812 120.762 296.388C120.91 295.968 121.135 295.652 121.435 295.44L121.426 295.418C121.018 295.528 120.561 295.476 120.055 295.262C119.548 295.048 119.188 294.69 118.974 294.186C118.657 293.439 118.624 292.757 118.876 292.14C119.126 291.529 119.722 291.024 120.664 290.624C121.211 290.392 121.707 290.306 122.153 290.368C122.6 290.432 122.963 290.531 123.24 290.664Z" fill="white"/>
<rect x="75.3138" y="209.034" width="99" height="99" rx="14" transform="rotate(-113 75.3138 209.034)" fill="url(#paint3_linear_11_10)"/>
<path d="M101.209 200.938C102.565 200.363 103.198 198.797 102.622 197.442C102.047 196.086 100.481 195.454 99.1255 196.029C97.7698 196.605 97.1373 198.17 97.7128 199.526C98.2882 200.881 99.8537 201.514 101.209 200.938ZM98.887 94.3746C100.243 93.7991 100.875 92.2336 100.3 90.8779C99.7242 89.5222 98.1587 88.8898 96.8031 89.4652C95.4474 90.0407 94.8149 91.6061 95.3903 92.9618C95.9658 94.3175 97.5313 94.95 98.887 94.3746ZM100.167 198.484L100.6 198.232C68.5321 143.092 87.6231 102.937 98.2 92.272L97.845 91.9199L97.49 91.5678C86.5788 102.57 67.4518 143.223 99.7352 198.735L100.167 198.484Z" fill="white"/>
<path d="M54.2801 123.841C54.3488 124.003 54.3022 124.118 54.1404 124.187L53.6658 124.388C53.5507 124.437 53.4084 124.446 53.2387 124.417L47.408 123.397C47.2435 123.369 47.136 123.296 47.0857 123.177L46.8773 122.687C46.8071 122.521 46.8529 122.404 47.0147 122.335L51.7449 120.328L51.3534 119.405C51.2847 119.244 51.3313 119.128 51.4931 119.06L51.8922 118.89C52.054 118.821 52.1685 118.866 52.2357 119.024L52.6294 119.952L54.2961 119.245C54.4579 119.176 54.5731 119.223 54.6418 119.384L54.8387 119.848C54.9074 120.01 54.8608 120.125 54.699 120.194L53.0324 120.901L54.2801 123.841ZM53.0888 123.494L52.1478 121.277L49.0465 122.593C48.9386 122.639 48.8293 122.681 48.7183 122.72L48.7229 122.731L53.0888 123.494Z" fill="white"/>
<defs>
<linearGradient id="paint0_linear_11_10" x1="235.966" y1="75.3138" x2="136.966" y2="174.314" gradientUnits="userSpaceOnUse">
<stop stop-color="#4795E4"/>
<stop offset="1" stop-color="#CA6672"/>
</linearGradient>
<linearGradient id="paint1_linear_11_10" x1="369.686" y1="136.966" x2="270.686" y2="235.966" gradientUnits="userSpaceOnUse">
<stop stop-color="#4795E4"/>
<stop offset="1" stop-color="#CA6672"/>
</linearGradient>
<linearGradient id="paint2_linear_11_10" x1="308.033" y1="270.686" x2="209.033" y2="369.686" gradientUnits="userSpaceOnUse">
<stop stop-color="#4795E4"/>
<stop offset="1" stop-color="#CA6672"/>
</linearGradient>
<linearGradient id="paint3_linear_11_10" x1="174.314" y1="209.034" x2="75.3138" y2="308.033" gradientUnits="userSpaceOnUse">
<stop stop-color="#4795E4"/>
<stop offset="1" stop-color="#CA6672"/>
</linearGradient>
</defs>
</svg>
